<mxfile host="app.diagrams.net" modified="2024-07-04T07:44:00.950Z" agent="Mozilla/5.0 (Macintosh; Intel Mac OS X 10_15_7) AppleWebKit/537.36 (KHTML, like Gecko) Chrome/126.0.0.0 Safari/537.36" version="24.6.4" etag="p1orta0rKxkLJeVJd9HG" type="github">
  <diagram name="第 1 页" id="WSeYwSI_fpxSqh49A8sn">
    <mxGraphModel>
      <root>
        <mxCell id="0" />
        <mxCell id="1" parent="0" />
      </root>
    </mxGraphModel>
  </diagram>
</mxfile>
